<svg xmlns="http://www.w3.org/2000/svg" width="22" height="25" viewBox="0 0 22 25">
    <g fill="#FFF" fill-rule="evenodd">
        <path d="M0 8v14.977C0 24.094.895 25 2 25h18c1.105 0 2-.906 2-2.023V8H0zm5.5 15.5h-4v-4h4v4zm0-5h-4v-4h4v4zm0-5h-4v-4h4v4zm5 10h-4v-4h4v4zm0-5h-4v-4h4v4zm0-5h-4v-4h4v4zm5 10h-4v-4h4v4zm0-5h-4v-4h4v4zm0-5h-4v-4h4v4zm5 10h-4v-4h4v4zm0-5h-4v-4h4v4zm0-5h-4v-4h4v4zM20 3h-3.25V.75a.75.75 0 0 0-1.5 0V3h-8.5V.75a.75.75 0 0 0-1.5 0V3H2C.895 3 0 3.906 0 5.023V7h22V5.023A2.012 2.012 0 0 0 20 3zM6 6.5a1.5 1.5 0 0 1-.75-2.797V5a.75.75 0 1 0 1.5 0V3.702A1.498 1.498 0 0 1 6 6.5zm10 0a1.5 1.5 0 0 1-.75-2.797V5a.75.75 0 1 0 1.5 0V3.702A1.498 1.498 0 0 1 16 6.5z"/>
    </g>
</svg>
