<svg xmlns="http://www.w3.org/2000/svg" width="56" height="50" viewBox="0 0 56 50">
    <g fill="#3C3C3C" fill-rule="evenodd">
        <path d="M9.287 38.947H19.78l.98-3.41H9.288zM22.562 28.077c.118-.407.319-.786.585-1.125H9.287v3.41h12.619l.656-2.285zM36.379 16.243v-2.5H9.287v3.41h26.104z"/>
        <path d="M40.684 44.86H4.974V5.08h8.312c0 1.726 1.517 3.126 3.387 3.126h12.314c1.87 0 3.386-1.4 3.386-3.126h8.312v7.145l2.002-1.848a5.973 5.973 0 0 1 2.923-1.47V5.08c0-2.51-2.205-4.546-4.925-4.546H4.973C2.253.535.048 2.571.048 5.081V44.86c0 2.51 2.205 4.546 4.925 4.546h35.711c2.72 0 4.926-2.036 4.926-4.546V32.223l-4.926 4.547v8.09z"/>
        <path d="M31.08 20.348H9.287v3.41h18.099zM55.033 16.502l-4.035-3.725c-1.11-1.024-2.677-1.453-3.789-.427L28.043 30.04l-2.917 10.136 10.99-2.686 19.17-17.694c1.107-1.023.857-2.271-.253-3.294zM27.217 38.446l.978-3.401 2.705 2.5-3.683.901zm21.51-20.045l-16 14.764-1.909-1.763 15.813-14.6c.278-.258 1.273.075 1.551.333.28.256.82 1.009.545 1.266z"/>
    </g>
</svg>
