<svg xmlns="http://www.w3.org/2000/svg" width="55" height="50" viewBox="0 0 55 50">
    <g fill="#1E345A" fill-rule="evenodd" opacity=".286">
        <path d="M9.875 39.258h10.37l.97-3.476H9.875zM22.996 29.118c.116-.414.314-.801.578-1.147H9.875v3.476h12.472l.649-2.329zM36.65 16.013v-2.547H9.876v3.476h25.8z"/>
        <path d="M41.111 45.261H5.817V4.711h8.216c0 1.759 1.499 3.186 3.347 3.186h12.17c1.849 0 3.347-1.427 3.347-3.187h8.215v7.283l1.979-1.884a5.839 5.839 0 0 1 2.89-1.498v-3.9c0-2.56-2.18-4.635-4.87-4.635H5.818C3.128.076.949 2.151.949 4.71v40.551c0 2.56 2.18 4.635 4.868 4.635H41.11c2.689 0 4.869-2.075 4.869-4.635V32.38l-4.869 4.635v8.247z"/>
        <path d="M31.414 21.277H9.875v3.475h17.888zM53.94 16.066l-3.989-3.797c-1.097-1.044-2.645-1.481-3.744-.435L27.264 29.866 24.38 40.2l10.861-2.737L54.19 19.424c1.095-1.043.847-2.316-.25-3.358zm-27.492 22.37l.966-3.467 2.673 2.548-3.64.92zm21.259-20.435L31.894 33.052l-1.887-1.797 15.628-14.883c.275-.263 1.259.076 1.533.339.276.261.812 1.028.539 1.29z"/>
    </g>
</svg>
