<svg xmlns="http://www.w3.org/2000/svg" xmlns:xlink="http://www.w3.org/1999/xlink" width="11" height="14" viewBox="0 0 11 14">
    <defs>
        <path id="a" d="M0 .501C0 .224.222 0 .497 0h4.84c.275 0 .66.157.863.354l.51.495c.201.195.533.51.735.695l.727.67c.204.189.37.568.37.845v7.438a.506.506 0 0 1-.509.503H.51A.508.508 0 0 1 0 10.499V.5z"/>
        <path id="b" d="M0 .501C0 .224.222 0 .497 0h4.84c.275 0 .66.157.863.354l.51.495c.201.195.533.51.735.695l.727.67c.204.189.37.568.37.845v7.438a.506.506 0 0 1-.509.503H.51A.508.508 0 0 1 0 10.499V.5z"/>
    </defs>
    <g fill="none" fill-rule="evenodd">
        <g transform="translate(2.065 .855)">
            <use fill="#FFF" xlink:href="#a"/>
            <path stroke="#4A4A4A" d="M.5.5h4.837c.145 0 .405.107.515.213l.51.495c.203.197.538.514.744.704l.727.67c.101.094.209.34.209.477v7.438s-.003.003-.009.003H.51c-.004 0-.009-.005-.009-.001V.5.5z"/>
        </g>
        <path fill="#4A4A4A" d="M7.464 1.072l2.92 3.372H7.973a.502.502 0 0 1-.51-.498V1.072z"/>
        <g>
            <g transform="translate(.065 2.855)">
                <use fill="#FFF" xlink:href="#b"/>
                <path stroke="#4A4A4A" d="M.5.5h4.837c.145 0 .405.107.515.213l.51.495c.203.197.538.514.744.704l.727.67c.101.094.209.34.209.477v7.438s-.003.003-.009.003H.51c-.004 0-.009-.005-.009-.001V.5.5z"/>
            </g>
            <path fill="#4A4A4A" d="M5.464 3.072l2.92 3.372H5.973a.502.502 0 0 1-.51-.498V3.072z"/>
        </g>
    </g>
</svg>
