<svg xmlns="http://www.w3.org/2000/svg" width="70" height="40" viewBox="0 0 70 40">
    <path fill="#1E345A" fill-rule="evenodd" d="M35.047 21.017l33.848-9.398a.87.87 0 0 0 .606-.59.854.854 0 0 0-.606-1.06L35.047.572a.907.907 0 0 0-.485 0L.713 9.97a.87.87 0 0 0-.606.588.854.854 0 0 0 .606 1.06l7.62 2.116v14.44c-.131.073-.254.164-.366.273a1.681 1.681 0 0 0 .068 2.488c-.978.728-1.467 2.154-1.467 2.154l-.883 5.145s1.765 1.715 3.53 1.715 3.53-1.715 3.53-1.715l-.883-5.145s-.489-1.426-1.467-2.154a1.681 1.681 0 0 0 .068-2.488 1.762 1.762 0 0 0-.366-.274V14.224l24.465 6.793a.907.907 0 0 0 .485 0zm.452 16.07l16.766-6.982c.649-.27 1.07-.89 1.07-1.577V17.792L35.046 22.87a.907.907 0 0 1-.485 0l-18.288-5.078v10.736c0 .686.42 1.306 1.07 1.577l16.765 6.982c.444.185.946.185 1.39 0z" opacity=".286"/>
</svg>
