<svg xmlns="http://www.w3.org/2000/svg" width="72" height="62" viewBox="0 0 72 62">
    <g fill="#FFF" fill-rule="evenodd">
        <path d="M5.317 35L0 56.528l21.565 5.308 5.317-21.528L5.317 35zm16.169 20.115L3.67 50.729 6.965 37.39l17.816 4.386-3.295 13.338z" opacity=".659"/>
        <path d="M7 48.834l3.183-2.32.884 1.458 3.857-2.029.446 2.22L19.632 44l.729 8.122z" opacity=".659"/>
        <ellipse cx="10.691" cy="42.688" opacity=".659" rx="1.691" ry="1.688"/>
        <path d="M2 58l.755 3.492 7.167-1.543zM20.776 37.544L20.224 35 15 36.124z" opacity=".659"/>
        <path d="M6 0v32.19l2.121.523V2.116H69.61v53.818h-43.55l-.522 2.116H71.73V0z"/>
        <path d="M12 12v22.164l.146.036 9.235-1.987.973 4.5 7.492 1.844-3.157 12.78h37.856V12H12zm26.274 23.335L31.912 39V24.337l6.362 3.666 6.36 3.666-6.36 3.666z"/>
    </g>
</svg>
