<svg xmlns="http://www.w3.org/2000/svg" width="12" height="14" viewBox="0 0 12 14">
    <path fill="#4A4A4A" fill-rule="nonzero" d="M9.688 13.855H1.442c-.76 0-1.377-.598-1.377-1.334V3.815c0-.736.618-1.335 1.377-1.335h1.19c.304 0 .55.243.55.542a.546.546 0 0 1-.55.542h-1.19c-.153 0-.277.112-.277.25v8.707c0 .138.124.25.277.25h8.246c.153 0 .277-.112.277-.25V3.815c0-.139-.124-.251-.277-.251H8.453a.546.546 0 0 1-.55-.542c0-.3.245-.542.55-.542h1.235c.76 0 1.377.599 1.377 1.335v8.706c0 .736-.618 1.334-1.377 1.334zM7.923 4.647H3.207a.937.937 0 0 1-.942-.928v-.775c0-.46.34-.841.786-.915v-.206c0-.533.44-.968.983-.968h3.062c.542 0 .983.435.983.968v.206a.934.934 0 0 1 .786.915v.775a.937.937 0 0 1-.942.928zM3.365 3.564h4.4v-.478a.935.935 0 0 1-.786-.916V1.94H4.151v.231c0 .46-.34.842-.786.916v.478zm4.558-.465h.005-.005zM7.215 8.98h-3.3a.546.546 0 0 1-.55-.541c0-.3.247-.542.55-.542h3.3c.304 0 .55.242.55.542 0 .3-.246.541-.55.541zm-1.65 1.625a.546.546 0 0 1-.55-.541v-3.25c0-.3.247-.542.55-.542.304 0 .55.243.55.542v3.25c0 .3-.246.541-.55.541z"/>
</svg>
