<svg xmlns="http://www.w3.org/2000/svg" width="18" height="25" viewBox="0 0 18 25">
    <g fill="#FF4E4E" fill-rule="nonzero">
        <path d="M12.329 21.568h.015a.723.723 0 0 0 .716-.717l.217-10.895a.725.725 0 0 0-.701-.746.744.744 0 0 0-.732.716l-.217 10.895a.726.726 0 0 0 .702.747z"/>
        <path d="M17.042 3.003h-5.097V1.876c0-.941-.75-1.707-1.672-1.707H7.727c-.922 0-1.672.766-1.672 1.707v1.127H.958a.724.724 0 0 0-.716.732v2.81c0 .405.32.732.716.732h.119l.917 16.863a.724.724 0 0 0 .716.691h12.58c.38 0 .694-.303.715-.691l.918-16.863h.118a.724.724 0 0 0 .717-.732v-2.81a.724.724 0 0 0-.716-.732zM7.488 1.876c0-.134.108-.243.24-.243h2.545c.131 0 .238.11.238.243v1.127H7.488V1.876zm-5.813 2.59h14.65v1.347H1.675V4.466zm12.937 18.902H3.388L2.512 7.277h12.976l-.876 16.091z"/>
        <path d="M5.655 21.568h.015a.725.725 0 0 0 .702-.747L6.156 9.926a.724.724 0 0 0-.716-.716h-.015a.725.725 0 0 0-.703.746L4.94 20.85c.008.4.327.717.716.717zM9 21.568a.724.724 0 0 0 .716-.732V9.942A.724.724 0 0 0 9 9.21a.724.724 0 0 0-.716.732l-.001 10.894c0 .404.321.732.716.732z"/>
    </g>
</svg>
