<svg xmlns="http://www.w3.org/2000/svg" width="17" height="23" viewBox="0 0 17 23">
    <path fill="#9D9D9D" fill-rule="nonzero" d="M4.117 0C3.227 0 2.5.737 2.5 1.615v.373h-.852A1.66 1.66 0 0 0 0 3.635v17.087a1.66 1.66 0 0 0 1.648 1.646H12a.751.751 0 0 0 .658-.37.742.742 0 0 0 0-.751.751.751 0 0 0-.658-.37H1.648c-.092 0-.148-.053-.148-.155V3.635c0-.102.056-.155.148-.155H2.5v14.78c0 .879.728 1.623 1.617 1.623h11.266c.89 0 1.617-.744 1.617-1.623V4.683a.744.744 0 0 0-.219-.52L12.883.217A.752.752 0 0 0 12.352 0H4.117zm0 1.491h7.133v3.48c0 .412.336.745.75.745h3.5V18.26c0 .091-.046.132-.117.132H4.117c-.07 0-.117-.04-.117-.132V1.615c0-.091.046-.124.117-.124zm8.633.715l2 2.02h-2v-2.02zm1.5 18.671a.748.748 0 0 0-.75.746c0 .412.336.745.75.745s.75-.333.75-.745a.748.748 0 0 0-.75-.746z"/>
</svg>
