<svg xmlns="http://www.w3.org/2000/svg" width="72" height="40" viewBox="0 0 72 40">
    <path fill="#154454" fill-rule="evenodd" d="M36.279 20.644l34.695-9.211c.3-.08.536-.298.622-.578.137-.446-.141-.911-.622-1.039L36.28.605a.97.97 0 0 0-.497 0L1.086 9.816a.875.875 0 0 0-.621.577c-.138.447.14.912.62 1.04l7.81 2.073v14.153c-.133.072-.26.16-.374.267a1.598 1.598 0 0 0 .07 2.44c-1.003.713-1.504 2.11-1.504 2.11l-.905 5.044S7.992 39.2 9.8 39.2c1.81 0 3.618-1.68 3.618-1.68l-.904-5.043s-.502-1.398-1.504-2.112l.07-.061a1.598 1.598 0 0 0 0-2.378 1.803 1.803 0 0 0-.375-.267V13.986l25.077 6.658a.97.97 0 0 0 .497 0zm.464 15.751l17.185-6.843c.665-.265 1.096-.873 1.096-1.545V17.483L36.28 22.46a.97.97 0 0 1-.497 0l-18.746-4.977v10.524c0 .672.431 1.28 1.096 1.545l17.186 6.843c.455.182.97.182 1.425 0z"/>
</svg>
