<svg xmlns="http://www.w3.org/2000/svg" width="15" height="9" viewBox="0 0 15 9">
    <path fill="#4A4A4A" fill-rule="nonzero" d="M14.013 4.668C13.257 2.482 10.41.833 7.391.833 4.372.833 1.525 2.482.77 4.668l-.06.176.06.177c.756 2.186 3.603 3.834 6.622 3.834 3.02 0 5.866-1.648 6.622-3.834l.061-.177-.06-.176zM9.49 4.01A2.1 2.1 0 0 1 7.391 6.11 2.1 2.1 0 0 1 5.293 4.01a2.1 2.1 0 0 1 2.098-2.098A2.1 2.1 0 0 1 9.49 4.01zM7.391 7.776c-2.494 0-4.828-1.248-5.535-2.932.432-1.028 1.47-1.893 2.781-2.411a3.155 3.155 0 0 0-.423 1.577 3.18 3.18 0 0 0 3.177 3.177 3.18 3.18 0 0 0 3.177-3.177c0-.574-.155-1.112-.423-1.577 1.31.518 2.35 1.383 2.781 2.411-.707 1.684-3.04 2.932-5.535 2.932z"/>
</svg>
