<svg xmlns="http://www.w3.org/2000/svg" width="26" height="26" viewBox="0 0 26 26">
    <g fill="#DEEEF9" fill-rule="nonzero">
        <path d="M10.707 16.313a.514.514 0 0 1-.307-.559V7.362H7.618c-.445-.043-.546-.239-.273-.579A938.404 938.404 0 0 1 12.22.736c.533-.651.78-.628 1.347 0 1.68 1.941 3.357 3.883 5.033 5.826.094.142.167.296.219.458-.16.067-.328.114-.5.139-.821.015-1.643 0-2.464 0h-.307v8.603a.483.483 0 0 1-.32.53h-4.521v.021zM.016 16.67h3.588v5.85h18.782v-5.847h3.598c0 .09.016.178.016.258v7.164c0 1.18-.751 1.895-1.979 1.895H1.955C.988 26 .307 25.53.073 24.713A2.04 2.04 0 0 1 0 24.154V16.89c0-.065 0-.132.016-.22z"/>
    </g>
</svg>
